<svg id="Layer_1" data-name="Layer 1" xmlns="http://www.w3.org/2000/svg" viewBox="0 0 500 500"><defs><style>.cls-1{fill:#1f1f35;}</style></defs><title>Dang 6</title><path class="cls-1" d="M99.33,113.05v10.22a1.08,1.08,0,0,0,1.08,1.08h10.76a1.08,1.08,0,0,1,1.08,1.08V374.57a1.08,1.08,0,0,1-1.08,1.08H100.4a1.08,1.08,0,0,0-1.08,1.08v10.22A1.08,1.08,0,0,0,100.4,388H165a1.08,1.08,0,0,0,1.08-1.08V113.05A1.08,1.08,0,0,0,165,112H100.4A1.08,1.08,0,0,0,99.33,113.05Zm25.29,261.52V125.43a1.08,1.08,0,0,1,1.08-1.08H152.6a1.08,1.08,0,0,1,1.08,1.08V374.57a1.08,1.08,0,0,1-1.08,1.08H125.7A1.08,1.08,0,0,1,124.62,374.57Zm226-159h25a1.08,1.08,0,0,1,1.08,1.08V388H322.9v-275A1.08,1.08,0,0,1,324,112h51.48a1.08,1.08,0,0,1,1.08,1.08v25a1.08,1.08,0,0,1-1.08,1.08H365.23a1.08,1.08,0,0,1-1.08-1.08V125.43a1.08,1.08,0,0,0-1.08-1.08H336.36a1.08,1.08,0,0,0-1.08,1.08V374.57a1.08,1.08,0,0,0,1.08,1.08h26.91a1.08,1.08,0,0,0,1.08-1.08V229.06a1.08,1.08,0,0,0-1.08-1.08H350.64a1.08,1.08,0,0,1-1.08-1.08V216.68A1.08,1.08,0,0,1,350.64,215.61Zm48,143.86H390.3a2,2,0,0,1-2-2V114a2,2,0,0,1,2-2h8.38a2,2,0,0,1,2,2v243.5A2,2,0,0,1,398.67,359.47Zm0,28.56H390.3a2,2,0,0,1-2-2V376a2,2,0,0,1,2-2h8.38a2,2,0,0,1,2,2v10A2,2,0,0,1,398.67,388Zm-167.06,0h10.21a1.08,1.08,0,0,0,1.07-1.18L217.53,113a1.08,1.08,0,0,0-1.07-1H204.7a1.08,1.08,0,0,0-1.07,1l-25.36,273.9a1.08,1.08,0,0,0,1.07,1.18h10.21a1.08,1.08,0,0,0,1.07-1l5.9-63.7a1.08,1.08,0,0,1,1.07-1h26a1.08,1.08,0,0,1,1.07,1l5.9,63.7A1.08,1.08,0,0,0,231.61,388Zm-33.74-79.2,11.64-125.71a1.08,1.08,0,0,1,2.14,0l11.64,125.71a1.08,1.08,0,0,1-1.07,1.18H198.94A1.08,1.08,0,0,1,197.87,308.82ZM296.82,112H307a1.08,1.08,0,0,1,1.08,1.08v273.9A1.08,1.08,0,0,1,307,388h-10.9a1.08,1.08,0,0,1-1.07-.93L272.59,219.72a1.08,1.08,0,0,0-2.14.14V386.95a1.08,1.08,0,0,1-1.08,1.08H259.15a1.08,1.08,0,0,1-1.08-1.08V112h12.42l23.1,172a1.08,1.08,0,0,0,2.14-.14V113.05A1.08,1.08,0,0,1,296.82,112Z"/></svg>