<svg id="Layer_1" data-name="Layer 1" xmlns="http://www.w3.org/2000/svg" viewBox="0 0 500 500"><defs><style>.cls-1{fill:#1f1f35;}</style></defs><title>Dang 12</title><path class="cls-1" d="M37,335.71A3.06,3.06,0,0,1,34,332.65V210.38a3.06,3.06,0,1,1,6.12,0V329.16c2-.32,4.92-.84,8.35-1.68a3.06,3.06,0,0,1,1.45,5.95,90.59,90.59,0,0,1-12.6,2.26Zm40.61-13.13c18.3-10.39,40.12-31.12,40.12-70.88S95.83,190.2,77.44,179.07a112.56,112.56,0,0,0-40-14.64,3.06,3.06,0,0,0-.77,6.07,108.38,108.38,0,0,1,37.81,13.91c24.67,15,37.19,37.66,37.19,67.29s-12.46,51.61-37,65.56a3.06,3.06,0,1,0,3,5.32Zm349.72-96a3.06,3.06,0,0,0-3.06-3.06H380.77a3.06,3.06,0,1,0,0,6.12h43.53A3.06,3.06,0,0,0,427.35,226.53Zm-1,108.37a3.06,3.06,0,0,0,1-2.25v-82a3.06,3.06,0,0,0-6.12,0v78.56a107.28,107.28,0,0,1-27.56-8.34,3.06,3.06,0,1,0-2.56,5.56A108.36,108.36,0,0,0,424,335.7h.26A3.06,3.06,0,0,0,426.36,334.9Zm-51.74-22a3.06,3.06,0,0,0-.35-4.31c-16.32-13.86-24.59-33-24.59-56.92,0-29.63,12.51-52.27,37.19-67.29a108.37,108.37,0,0,1,37.81-13.91,3.06,3.06,0,0,0-.77-6.07,112.56,112.56,0,0,0-40,14.64c-18.39,11.14-40.31,32.78-40.31,72.63,0,25.79,9,46.51,26.75,61.58a3.06,3.06,0,0,0,4.31-.35ZM220.8,337a3.06,3.06,0,0,0,2.1-3.79L175.18,166.8a3.24,3.24,0,0,0-6.25,1.69L217,334.95h0A3.06,3.06,0,0,0,220.8,337Zm-93.69-2.1,38.5-134.32a3.06,3.06,0,1,0-5.88-1.69l-38.5,134.32a3.06,3.06,0,1,0,5.88,1.69Zm74-20.85A3.06,3.06,0,0,0,198,311H132.62a3.06,3.06,0,0,0,0,6.12H198A3.06,3.06,0,0,0,201.06,314.1ZM326.22,187.86V166.48a3.06,3.06,0,0,0-6.12,0v21.39a3.06,3.06,0,0,0,6.12,0Zm-2.38,148.65a3.06,3.06,0,0,0,2.38-3V214.1a3.06,3.06,0,0,0-6.12,0V320L247.22,167.49a3.06,3.06,0,0,0-5.52,2.64l78.69,164.71a3.06,3.06,0,0,0,3.44,1.67Zm-76.31-3V208.19a3.06,3.06,0,0,0-6.12,0V333.52a3.06,3.06,0,1,0,6.12,0ZM466,336.15V320.4a3.06,3.06,0,0,0-6.12,0v15.74a3.06,3.06,0,0,0,6.12,0Zm0-33.23V163.85a3.06,3.06,0,0,0-6.12,0V302.91a3.06,3.06,0,0,0,6.12,0Z"/></svg>