<svg id="Layer_1" data-name="Layer 1" xmlns="http://www.w3.org/2000/svg" viewBox="0 0 500 500"><defs><style>.cls-1{fill:#1f1f35;}</style></defs><title>Dang 16</title><path class="cls-1" d="M210.79,292.63,187.23,171.52H163.65L140.09,292.63H124.35V328h41V292.63H156.5l2.89-15.72h25.53l2.89,15.72h-8.15V328h48.55V292.63Zm-48.85-28.55,10.22-51.27,10.21,51.27Zm167.62-92.72v35.42H314.48V328H298L267.49,224.58v68H277V328H236V292.63h15V206.77H236.52V171.35H268l30,100V206.77h-8V171.35Zm78.11,68.45v35.41H397.52v33c0,12.38-10.3,20.59-23.77,20.59H359.13c-13.47,0-23.78-8.21-23.78-20.59V191.46c0-12.39,10.31-20.59,23.78-20.59h14.62c13.47,0,23.77,8.2,23.77,20.59v25.46H381.71c0-6.42-4.14-9.25-8.45-9.25H359.62c-4.3,0-8.45,2.83-8.45,9.25v65.86c0,6.41,4.15,9.25,8.45,9.25h13.63c4.31,0,8.45-2.84,8.45-9.25v-7.57h-15V239.81Zm19.5,53.78h16.54v35.55H427.17Zm25.37-122.32-9.25,104.16H428.37l-9.25-104.16Zm-359.23-.1H47.46v35.22H61.58V293H47.46v35.22H93.31c13.47,0,23.78-8.21,23.78-20.59V191.76C117.09,179.36,106.78,171.16,93.31,171.16Zm8,111c0,6.41-4.15,9.25-8.45,9.25H78.89V208H92.82c4.3,0,8.45,2.84,8.45,9.25Z"/></svg>