<svg id="Layer_1" data-name="Layer 1" xmlns="http://www.w3.org/2000/svg" viewBox="0 0 500 500"><defs><style>.cls-1{fill:#1f1f35;}</style></defs><title>Dang 9</title><path class="cls-1" d="M93.51,289V202.55H73.18v8H82.3V240.2A31.26,31.26,0,0,0,59,229.55c-17.95,0-32.5,15.74-32.5,35.17S41.06,299.89,59,299.89A31.26,31.26,0,0,0,82.3,289.24V297h24.21v-8Zm-31.66,3.63c-11.37,0-20.58-12.21-20.58-27.26s9.21-27.26,20.58-27.26c10.58,0,19.29,10.57,20.45,24.17v6.18C81.14,282.06,72.43,292.63,61.85,292.63Zm148.49-22.75h-8c0,10,1.29,18.58-4.42,18.58-4.54,0-3.29-4.87-3.29-42.62,0-3.75-2.5-19.12-26.12-19.12,0,0-30-1.3-30,18.86a8.5,8.5,0,1,0,14.15-6.21c1.6-3.28,6.77-5.16,13-5.16,4.62,0,16,.78,16,13.78-10.58,10.58-44.75,2.83-44.75,32.1,0,13,21.88,26.54,44.87,5.65,1.4,9.46,8.58,11.22,15.13,11.22C212.25,297,210.34,285.84,210.34,269.88Zm-60.71,7.33c0-17.39,26.16-15.47,33.08-22.39C182.7,296,149.62,292.19,149.62,277.21ZM471.9,161.6l-3,113.21h-9.57l-3-113.21ZM324.54,289.08v8H285.46v-8h13.42c0-37.32,1.69-51.8-12.4-51.8-4.79,0-18.34,3.78-22.2,21.82v30H276.4v8H237.31v-8h15.38v-49.9H237.31v-8.27h27v13.37a27,27,0,0,1,23.58-16c29.19-1,24.59,23.26,24.46,60.75Zm148.95,2.7c0,4.67-4.2,8.45-9.37,8.45s-9.37-3.78-9.37-8.45,4.2-8.45,9.38-8.45S473.49,287.11,473.49,291.78ZM361,284.18c0-5.69,6.16-6.69,9-6.85a41.38,41.38,0,0,0,16.26,3.24c18.29,0,33.13-11.25,33.13-25.13,0-6-2.8-11.56-7.47-15.89,12.69-4.24,12.3-23.32,1-23.32-11.67,0-12.17,14.67-1.25,14.67a10.15,10.15,0,0,1-4.68,4.93,40,40,0,0,0-20.7-5.52c-18.29,0-33.12,11.25-33.12,25.13,0,6.48,3.23,12.39,8.54,16.84-5.15,1-11.92,4.26-11.92,14.7a15.22,15.22,0,0,0,6.41,12.67S344,305.8,344,315.18c0,28.63,78.63,33.45,78.63-.62C422.6,278.3,361,299.3,361,284.18Zm25.25-46.7c10.33,0,18.7,8,18.7,17.87s-8.37,17.87-18.7,17.87-18.7-8-18.7-17.87S375.89,237.48,386.22,237.48Zm-28,75.7c0-5.5,2.06-8.7,4.24-10.55,10.49,3.08,46.26-5.07,46.26,14.92C408.72,334,358.22,330.8,358.22,313.18Z"/></svg>