<svg id="Layer_1" data-name="Layer 1" xmlns="http://www.w3.org/2000/svg" viewBox="0 0 500 500"><defs><style>.cls-1{fill:#1f1f35;}</style></defs><title>Dang 14</title><path class="cls-1" d="M194,247.18c0-.29,0-.57,0-.85V207.86a.67.67,0,0,0-.67-.67h-7.22a.67.67,0,0,0-.67.67v21.35a1,1,0,0,1-1.49.87,19.56,19.56,0,1,0,.47,33.94.67.67,0,0,1,1,.57v.58a.67.67,0,0,0,.67.67h7.22a.67.67,0,0,0,.67-.67V248C194,247.75,194,247.47,194,247.18Zm-19.56,11a11,11,0,1,1,11-11.46v.94A11,11,0,0,1,174.46,258.18Zm170.64-48v39.5a3,3,0,0,1-3,3h-2.56a3,3,0,0,1-3-3v-39.5a3,3,0,0,1,3-3h2.56A3,3,0,0,1,345.1,210.19Zm0,51.25v1.35a3,3,0,0,1-3,3h-2.56a3,3,0,0,1-3-3v-1.35a3,3,0,0,1,3-3h2.56A3,3,0,0,1,345.1,261.44ZM238.82,247.18c0-.29,0-.57,0-.85V228.26a.67.67,0,0,0-.67-.67h-7.22a.67.67,0,0,0-.67.67v.94a1,1,0,0,1-1.49.87,19.56,19.56,0,1,0,0,34.21,1,1,0,0,1,1.49.87h0a.67.67,0,0,0,.67.67h7.22a.67.67,0,0,0,.67-.67V248C238.81,247.75,238.82,247.47,238.82,247.18Zm-19.56,11a11,11,0,1,1,11-11.46v.94A11,11,0,0,1,219.26,258.18Zm65.51-10.47v17.46a.67.67,0,0,1-.67.67h-7.22a.67.67,0,0,1-.67-.67V247.55a11.12,11.12,0,0,0-11.11-11.15,10.82,10.82,0,0,0-10.82,10.77h0v18a.67.67,0,0,1-.67.67h-7.22a.67.67,0,0,1-.67-.67V228.26a.67.67,0,0,1,.67-.67h7.22a.67.67,0,0,1,.67.67v1.2a1,1,0,0,0,1.5.87,19.43,19.43,0,0,1,9.54-2.45A19.72,19.72,0,0,1,284.77,247.71Zm44.12,25.51V228.15a.67.67,0,0,0-.67-.67H321a.67.67,0,0,0-.67.67v1.11a1,1,0,0,1-1.49.87,19.56,19.56,0,1,0,0,34.15,1,1,0,0,1,1.5.87v8.06h0a10.85,10.85,0,0,1-10.89,10.84s0,8.09,0,8.09a.67.67,0,0,0,.7.67,19.6,19.6,0,0,0,18.78-19.35h0v-.19s0,0,0-.05Zm-19.6-15a11,11,0,1,1,11-11A11,11,0,0,1,309.29,258.2Z"/></svg>