<svg id="Layer_1" data-name="Layer 1" xmlns="http://www.w3.org/2000/svg" viewBox="0 0 500 500"><defs><style>.cls-1{fill:#1f1f35;}</style></defs><title>Dang 1</title><path class="cls-1" d="M386.93,313.57h-9.27a15,15,0,0,1-15-15V161.2a15,15,0,0,1,15-15h9.27a15,15,0,0,1,15,15V298.57A15,15,0,0,1,386.93,313.57Zm15,31.62h0a8.84,8.84,0,0,0-8.84-8.84H371.51a8.84,8.84,0,0,0-8.84,8.84h0a8.84,8.84,0,0,0,8.84,8.84h21.58A8.84,8.84,0,0,0,401.93,345.19Zm-227.7-79.62v44a3,3,0,0,1-5.51,1.55L139.95,263.9a8.93,8.93,0,0,0-7.62-4.28H107a8.93,8.93,0,0,0-8.93,8.93V345.7A8.33,8.33,0,0,0,106.4,354H129a8.33,8.33,0,0,0,8.33-8.33V306.33a3,3,0,0,1,5.5-1.58l29.05,46.48a6,6,0,0,0,5,2.8h30.62a6,6,0,0,0,6-6V265.57a6,6,0,0,0-6-6H180.18A6,6,0,0,0,174.23,265.57Zm38.91-72.4h0A47.17,47.17,0,0,1,166,240.34l-59,0a8.93,8.93,0,0,1-8.93-8.93V154.89A8.93,8.93,0,0,1,107,146l59,0A47.17,47.17,0,0,1,213.15,193.17Zm-32,0c0-14.35-15.2-26-29.55-26h-5.22a8.93,8.93,0,0,0-8.93,8.93v34.12a8.93,8.93,0,0,0,8.93,8.93h5.22c14.35,0,29.55-11.63,29.55-26Zm124.78,39.88-1.75-9.65a2.72,2.72,0,0,0-2.67-2.23H281.64A2.72,2.72,0,0,0,279,223.4l-1.75,9.65a8.93,8.93,0,0,1-8.78,7.33H247.31a8.93,8.93,0,0,1-8.78-10.52l1-5.49a2.72,2.72,0,0,0-2.67-3.2h-.6a2.72,2.72,0,0,1-2.72-2.72v-14.2a2.72,2.72,0,0,1,2.72-2.72h5.15a2.72,2.72,0,0,0,2.67-2.23l7-38.68A17.85,17.85,0,0,1,268.67,146h45.77A17.85,17.85,0,0,1,332,160.63l12.58,69.23a8.93,8.93,0,0,1-8.78,10.52H314.67A8.93,8.93,0,0,1,305.89,233.05ZM286.2,201.53h10.71a2.72,2.72,0,0,0,2.67-3.2l-5.1-28.07a3,3,0,0,0-5.85,0l-5.1,28.07A2.72,2.72,0,0,0,286.2,201.53Zm10.88,79.52h34.31a3,3,0,0,0,3-3V262.52a3,3,0,0,0-3-3H280.33a47.19,47.19,0,0,0-47.19,47.19h0a47.17,47.17,0,0,0,47.17,47.17h25.07v0H326.8a17.85,17.85,0,0,0,17.85-17.85V309.93a8.93,8.93,0,0,0-8.93-8.93H298.89a3,3,0,0,0-3,3v13.69a3,3,0,0,0,3,3h3.44a3,3,0,0,1,3,3v6.11a3,3,0,0,1-3,3H297a26,26,0,0,1-26-26.24C271.13,292.33,282.93,281.06,297.08,281.06Z"/></svg>