<svg id="Layer_1" data-name="Layer 1" xmlns="http://www.w3.org/2000/svg" viewBox="0 0 500 500"><defs><style>.cls-1{fill:#231f20;}</style></defs><title>Dang 15</title><path class="cls-1" d="M77.14,212.36H50V218h6.29v65.83H50.73v5.59H77.14a39.25,39.25,0,0,0,39.21-39.21C116.35,229,99.13,212.36,77.14,212.36ZM70.74,218v65.83H61.88V218Zm6.4,65.83h-.81V218h.81c18.85,0,33.62,14.15,33.62,32.22A33.65,33.65,0,0,1,77.14,283.79Zm284.66-48v5.59h12.67v42.41h-6.69a33.65,33.65,0,0,1-33.62-33.62c0-18.07,14.77-32.22,33.62-32.22h26.8v-5.59h-26.8c-22,0-39.21,16.61-39.21,37.81a39.25,39.25,0,0,0,39.21,39.21H392l2.8-2.8v-48l-2.8-2.8Zm27.42,48h-9.15V241.38h9.15ZM177,212.49h-2.59l-2.57,1.7L141.2,286.5l5.15,2.18,5.24-12.35h32.3l4.67,11.22,2.58,1.72h15.61l2.58-3.87-29.71-71.19Zm-9.14,25.4,13.66,32.84H154ZM193,283.69l-22-53,4.78-11.26,26.82,64.26Zm97.25-.48h-2.34l-28.71-69-2.58-1.72H246.15l-2.8,2.8v73.64h5.59V242.29l18.61,44.9,2.58,1.73h22.57v-.12h.35l2.8-2.8V212.14h-5.59Zm-41.31-55.52v-9.6h5.81l27.15,65.24H272Zm186.26,48.65-2.8,2.8v8.15l2.8,2.8h9.55l2.8-2.8v-8.15l-2.8-2.8Zm6.76,8.15h-4v-2.56h4Zm-6.41-21h8.16l2.79-2.59,3.5-48-2.79-3H432.06l-2.79,3,3.5,48Zm8.64-48-3.09,42.42h-3l-3.09-42.42Z"/></svg>