<svg id="Layer_1" data-name="Layer 1" xmlns="http://www.w3.org/2000/svg" viewBox="0 0 500 500"><defs><style>.cls-1{fill:#1f1f35;}</style></defs><title>Dang 8</title><path class="cls-1" d="M302,176.19l14.65,14.66H260.73l14.58-14.66H302Zm14.81,147.7h14.66V205.65L316.77,191Zm-70.74,0h14.66v-133L246,176.25Zm207.47-.3h14.66V307L453.5,292.38Zm0-147.39V291.89h14.66V190.78Zm-54.65,14.58h17.49l-14.58-14.66H382.19L367.6,190.77h31.24Zm-10.56,74H431L416.46,250.1H388.29Zm-2,44.43h-18.6l14.7,14.7h19.2l14.7-14.7h-30Zm30.11-23.1v23l14.66-14.58v-15L416.4,264.85ZM353,210.44v84l14.66,14.67V190.85L353,205.51Zm63.47-1h14.66v-3.92l-14.66-14.67Zm-313.91.85V309l14.66-14.65V205.66L102.56,191Zm-48,79.36V191L39.94,205.54V294.6l14.65,14.58H31.84v14.7H87.7l14.7-14.7H54.6ZM31.84,176.18v14.7h70.61l-14.7-14.7Zm153.28,88.55h-16.8l-14.58,14.66h55.8L195,264.73ZM191,190.88H209.4l-14.7-14.7H168.59l-14.7,14.7H191Zm-52,133h14.7V191.13l-14.7,14.7Zm70.7,0h14.7V205.83l-14.7-14.7Z"/></svg>