<svg id="Layer_1" data-name="Layer 1" xmlns="http://www.w3.org/2000/svg" viewBox="0 0 500 500"><defs><style>.cls-1{fill:#1f1f35;}</style></defs><title>Dang 7</title><path class="cls-1" d="M411.59,192.66v85.68H392V192.66ZM392,288.89v18.39h19.54V288.89ZM155.6,254.06l0,29.59a23.56,23.56,0,0,1-23.56,23.58H88.47l-.06-10.77H98v-84.8H88.41l.06-10.77h43.6a23.56,23.56,0,0,1,23.56,23.58Zm-19.43,2.23v-30.5A14.13,14.13,0,0,0,122,211.65h-4.52v84.8H122a14.13,14.13,0,0,0,14.14-14.13Zm95.74,40.16H232l-.06,10.77H188.3a23.55,23.55,0,0,1-23.5-22h0v-.35q0-.62,0-1.25l0-15.12,0-15.12q0-.63,0-1.25v-.35h0a23.55,23.55,0,0,1,23.5-22h24.18v-4a14.13,14.13,0,0,0-14.14-14.13H173.78l.06-10.77h34.56a23.56,23.56,0,0,1,23.56,23.57v12.49l0,3.66h0Zm-33.57,0h14.14V240.6H198.34a14.13,14.13,0,0,0-14.14,14.13v27.59A14.13,14.13,0,0,0,198.34,296.46Zm86.28-90.52H260.4v-5H240.86V307.34H260.4V216.71h14.17a14.13,14.13,0,0,1,14.14,14.13v76.49h19.43l0-77.84A23.56,23.56,0,0,0,284.62,205.94Zm68.88,23.83v10.77h9.95v55.92H350.71a14.13,14.13,0,0,1-14.14-14.13V260.56h0V225.79a14.13,14.13,0,0,1,14.14-14.13h24.56l-.06-10.77H340.67a23.56,23.56,0,0,0-23.56,23.57l0,27.36h0l0,31.83a23.56,23.56,0,0,0,23.56,23.58h18.72a23.56,23.56,0,0,0,23.56-23.54l0-53.92Z"/></svg>