<svg id="Layer_1" data-name="Layer 1" xmlns="http://www.w3.org/2000/svg" viewBox="0 0 500 500"><defs><style>.cls-1{fill:#1f1f35;}</style></defs><title>Dang 2</title><path class="cls-1" d="M122.27,310.83c-1.8,2.11-15.43-4.66-10.16-5.08,42.44-49.71,51.49-121.95,34.31-120.59-7.81.62-24.81,54.24-31.15,75.13-4.62,26.45-8.83,51.65-8.26,58.88.36,4.57-9.63,3.1-12,1.06-13.46-11.49,16-132.62,20.51-137.88,3.84-4.5,10.29,1.7,10.67,6.46.32,4-1.37,15.85-3.86,30.87,6.88-21.32,15.77-41.28,25.12-42C174.42,175.54,176.65,247.14,122.27,310.83ZM344.56,207.19c-.63,0-4.26,18.35-11.19,43.26-7.8,18.33-17.95,38.81-23.08,34.42-9-8.07,8-57.24,31.44-84.65,3.65-4.28-4.81-5.33-6.57-5.19-11.57.91-41.84,49.24-39,79.46-4,7-8.33,13.29-11.25,13.52-17,1.34,29.07-90.82,1.62-88.66C271,200.59,255.65,248,244.17,274c6.44-28.79,15.94-73.2,20.15-73.53,2.38-.19-5.07-7.79-8.13-7.55-10.12.8-23.19,60.52-27.35,86.89-3.16,8.31-6.6,14.13-10.14,14.41-15.88,1.25-.47-72.43,6.74-73,2-.16-7-4.47-8.39-4.36-3.91.31-12.68,22.79-15.82,44.49-7.77,18.19-17.77,38.22-22.85,33.88-9-8.07,8-57.24,31.44-84.65,3.65-4.28-4.81-5.33-6.57-5.19C189,206.57,146.15,280,172.33,302.38c9.07,7.74,19.55-6.86,27.83-23.76.53,13.6,5.18,23.78,17.52,22.81,4.08-.32,7.53-2.78,10.48-6.67,1.38,4.17,4.65,6.06,7.5,5,16.11-4.9,35.27-88.69,47.85-89.68,5.9-.47-34.94,89.46-1.82,86.85,6.28-.5,11.89-7.19,16.12-14.5a22.06,22.06,0,0,0,6.42,9.53c6,5.15,12.7.41,18.92-8.32-9.89,29-23.35,59.79-40.7,80.11-1.35,1.58,7.53,8.65,15.36-.53C344.46,308.6,352.59,212,355.93,211.78,359.73,211.48,350.06,206.76,344.56,207.19Zm27.06,64.3c-2.89.23-6.8,19.17-3.66,18.92,8.15-.64,12.57-4.82,12.09-10.87C379.52,272.72,374.77,271.24,371.62,271.49Zm28.31-139.3c-5.78.46-28.88,91.06-27,115.33,1.15,14.52,9.61,13.28,9.61,13.28C379.47,221.56,427.49,130,399.93,132.19Z"/></svg>