<svg id="Layer_1" data-name="Layer 1" xmlns="http://www.w3.org/2000/svg" viewBox="0 0 500 500"><defs><style>.cls-1{fill:#1f1f35;}</style></defs><title>Dang 3</title><path class="cls-1" d="M98.71,288.61l-.28-5c27.51-9.53,44.84-36.33,44.84-61.7a50.54,50.54,0,0,0-18.18-39.35c-8.64-7.26-19.75-12.19-33.17-14.78l-.5-8.84L81,159.52l.38,6.74q-6.45-.62-13.48-.62H62.64V176.1h5.23a124.91,124.91,0,0,1,14.08.78l5.56,98.83a56.43,56.43,0,0,1-10.86,1.06H71.41v10.46h5.23a67.85,67.85,0,0,0,11.46-1l.17,2.94Zm-6.18-110C103,181,111.75,185,118.36,190.57A39.81,39.81,0,0,1,132.8,221.9c0,13.32-5.69,26.95-15.61,37.4a56,56,0,0,1-19.38,13.31Zm63.78,66.44,10.49,4.47,10.53-24.69,21,7,2.86,22.91L203.76,275l10.77,1.82L250,204.88l9.88,109.65,11.18,1,46.55-168.69-11-3-38.2,138.4-8.88-98.56-10.79-2-36,73-.54-4.36h0l-10.55-84.4-10.91-1.53L171,210.74l-13.71-4.53L153.66,217l12.8,4.23Zm36.61-56.79,3.88,31-15-5Zm188.76,17.08-2.77,5-10-5.55,2.77-5h0c3.4-6.14,9.25-20.81,5.62-27-1.36-2.3-4.52-3.46-9.41-3.46-28.58,0-49.27,50.34-49.27,84.28,0,9.23,1.46,16.82,4.22,21.94,3.36,6.23,7.62,7,10.54,7,15.42,0,22.35-13.34,28-33.57l5.42-21.55.21-.82,11.06,2.79h0l-.2.79c-.6,2.42-1.2,4.89-1.79,7.38-1.23,5.12-2.52,10.49-4,15.81L351.59,335l-11.06-2.78,10.91-43.41a31.52,31.52,0,0,1-18,5.2c-8.9,0-16-4.48-20.58-13-3.65-6.78-5.58-16.24-5.58-27.35,0-39,23.63-95.69,60.67-95.69,11.48,0,16.8,4.95,19.24,9.09C395.06,180.52,383.08,202.87,381.68,205.37Zm7.67,56.84,11,3-6.79,25-11-3Zm48-133.08L403.12,255l-11-3,34.24-125.91ZM132.61,324.59l213.85,38-2,11.23L95.53,329.58l.2-11.26,112.55-16-64.36-17.63,3-11,90.9,24.9-.7,11.15Z"/></svg>