<svg id="Layer_1" data-name="Layer 1" xmlns="http://www.w3.org/2000/svg" viewBox="0 0 500 500"><defs><style>.cls-1{fill:#1f1f35;}</style></defs><title>Dang 11</title><path class="cls-1" d="M408.58,153.35c-6.28,6.89-42.31,93.83-42.31,124.1,0,2.24-4.87,1.42-4.87-.4,0-47.15,28.75-123.2,35.45-129.9C405,139,410,151.9,408.58,153.35Zm-123,39.83c7.14,7.14-19,65.18-19,92.4,0,10.89,12.18,7.82,15.49,4.51,0-49.58,34.13-73.58,4.37-103.34-12.07-12.07-40.71,88.69-45.59,83.81-3.78-3.78,13-54.7,20.66-62.35,1.08-1.08-3.85-15.31-10.89-8.26-3.41,3.41-12.84,29.35-17.42,52.28-7.82,15.17-16.47,28.48-22.77,28.48-5.35,0,16.2-64.84,23.85-72.5,1.08-1.08-3.85-15.31-10.89-8.26-3.36,3.36-14.79,33.32-20.3,57.53-7.37,13.21-15.45,23.61-22.61,23.61-15.78,0,10.89-91.28,26.29-91.28,9.81,0-11.36,57.15-11.36,57.85,0,.41,1.35,1.91,3.08.19,5.27-5.27,28.52-62,10.35-62-25.51,0-53.18,56.48-50.09,85.6a16,16,0,0,1-9.63,3.42c-9.3,0,26.2-108.18,38-120,.85-.85-3.1-16.06-10.89-8.26-4.07,4.07-32.39,72.94-39.57,112.51-3.34,4.92-15.5,22-23.53,22-15.78,0,10.89-91.28,26.29-91.28,9.81,0-11.36,57.15-11.36,57.85,0,.41,1.35,1.91,3.08.19,5.27-5.27,28.52-62,10.35-62-34.37,0-72.68,102.55-34.37,102.55,11.49,0,21.6-10.2,28.1-18.82-.85,10.33.77,16.94,6.27,16.94,4.69,0,12.19-4.64,18.31-9.5,2.08,7,6.72,11.37,14.65,11.37,9.48,0,18.39-7.56,26.25-18.19-1.45,10.84-.62,18.52,4.46,18.52,9.19,0,18-8.26,25.62-19.46-.52,8.12.29,14.56,3.21,17.49C245,297.73,280.68,188.3,285.57,193.19ZM305.45,322a5,5,0,0,0-1.34,2.38c0,.36,28.3-.37,28.3,9.44,0,13.15-63.57,6.11-63.57-8.61,0-13.05,46.89-11.24,47.74-12.09.69-.69,3.72-3.52,2.78-4.46-.36-.36-8.53-.89-18.62-.23-14-2.24-5.67-20.05,11.49-20.05,22.26,0,46.77-58.43,46.77-60.57,0-2.54-4.35-.9-5.26,0s-22.44,53.24-35.5,53.24c-15.78,0,10.89-91.28,26.29-91.28,9.81,0-7.25,45-6.95,45.26.47.47,2,.87,2.72.19,6.24-6.24,24.46-49.39,6.29-49.39-30.59,0-64.3,81.22-44.34,99.09-13.67,5.25-19.43,18.57-11,24.45-14.68,2-29.62,7-29.62,18.46,0,37.17,74,34.92,74,5.58C335.65,315.27,310.66,316.83,305.45,322Zm62.76-29.89c.16-.16.84-.8.63-1s-13-.7-13,4.33c0,8.4,16.72,7.89,16.72,1.26C372.52,292.63,368,292.34,368.21,292.15Zm-33.74-49.53c-1.07,1.07-3.12,6.9-3.12,7.45,0,1.48,1.12,1.42,1.93.61.31-.31,3.75-5.82,3.75-6.78S335.54,241.55,334.47,242.62Z"/></svg>