<svg id="Layer_1" data-name="Layer 1" xmlns="http://www.w3.org/2000/svg" viewBox="0 0 500 500"><defs><style>.cls-1{fill:#1f1f35;}</style></defs><title>Dang 10</title><path class="cls-1" d="M105.62,201.35c-.55.55-.41,2.76,0,3.17s2.42-.29,3.21.5c8.54,8.54,9.05,81.62-.5,91.18-1,1-3-.12-3.44.27a2,2,0,0,0,0,2.54c.79.79,14.67.54,21.56.65,22.69.37,40.77-3.91,40.77-47.49,0-48.79-19.55-51.85-44-51.28C117.54,201,106.17,200.8,105.62,201.35ZM140,296.77c-4.26,0-7.72-20.69-7.72-46.22s3.46-46.22,7.72-46.22,7.72,20.69,7.72,46.22S144.3,296.77,140,296.77Zm89.77-.4c-11.68-11.68-21.43-93.27-22-93.85s-5.48-.5-6,0-17.66,86.92-24.59,93.85c-.49.49-3-.38-3.37,0a4.54,4.54,0,0,0,0,2.9c.22.22,5.78,0,11.28.09,5.21.07,10.37.42,10.88-.09s.24-2.66,0-2.9-2.5.45-3-.07c-2.6-2.6-3.82-22.95-2.2-24.57.69-.69,10.85-.74,11.59,0,1.53,1.53.84,21.1-2.59,24.53-.52.52-1.8-.18-2.08.11a4.66,4.66,0,0,0,0,2.9c.45.45,7.77-.15,15.87-.12,9.2,0,19,.37,19.28.12.48-.48.28-2.61,0-2.9S230.49,297.06,229.8,296.37Zm-38.73-27.54c-.69-.69,4.75-31,5.66-31s5.94,30.42,5.38,31S191.77,269.53,191.07,268.84Zm99.52,27.23c.55.55,2.1-.09,2.41.21a4.66,4.66,0,0,1,0,2.9c-.3.3-5.92-.26-11.9-.26-6.46,0-13,.57-13.32.26a4.68,4.68,0,0,1,0-2.9c.34-.34,2.65.6,3.37-.12,6-6-17.8-61.19-18.47-60.51s1.44,53.59,8.17,60.32c1,1,3.32-.09,3.72.31a2.91,2.91,0,0,1,0,2.9c-.49.49-6.76,0-12.82,0-5.38,0-10.3.55-10.79,0-.68-.68-.33-2.57,0-2.9s1.62.26,2.13-.24c6.06-6.06,7-81.92-1.1-90.06-.71-.71-2.23,0-2.51-.31s-.63-2.27,0-2.9,6.46.15,12.61.15,12-.72,12.6-.15a3,3,0,0,1,0,2.9c-.24.24-1.44-.07-1.77.27-5.88,5.88,17.56,59.48,18.43,58.62s-3.08-53.15-8.6-58.66c-.36-.36-1.28.15-1.65-.22a3.48,3.48,0,0,1,0-2.9c.44-.44,6.17.27,12,.27s11.09-.76,11.59-.27.66,2.9,0,2.9-1.27-.18-1.71.27C290.28,208.64,282.72,288.19,290.6,296.06Zm41.58,3.22c-45.29,0-34.24-98.74-1.63-98.74a12.47,12.47,0,0,1,9.85,4.26c7.2-7.2,14.05-5.79,14.68-5.16-9.27,9.27-7.47,28.94,2,38.46-32.34,0-13.86-34.24-26.63-34.24-14.13,0-9.78,92.13,1.63,92.13,6.84,0,6.67-33.18-3.55-43.4-.62-.62-2.86.21-3.27-.2a3.07,3.07,0,0,1,0-2.9c.59-.59,7.69.14,15.29.11,7.94,0,15.85-.7,16.44-.11a2.49,2.49,0,0,1,0,2.9c-.51.51-2.79-.35-3.4.27C352.52,253.76,368.23,299.28,332.18,299.28Zm63.08-93.42c-.31.31-1.75-.25-2,0-4.78,4.78-11.42,71.52-11.86,72a3.86,3.86,0,0,1-3.26,0c-.52-.52-4.56-64.92-11.36-71.71-.43-.43-2.11.16-2.52-.25a3.2,3.2,0,0,1,0-2.9c.26-.26,8,.19,15.75.2,7.55,0,15-.44,15.25-.2C395.74,203.44,395.57,205.55,395.26,205.86Zm-15.5,75.25c-5.07,0-9.17,4.43-9.17,9.9s4.11,9.9,9.17,9.9,9.17-4.43,9.17-9.9S384.83,281.11,379.76,281.11Z"/></svg>