<svg id="Layer_1" data-name="Layer 1" xmlns="http://www.w3.org/2000/svg" viewBox="0 0 500 500"><defs><style>.cls-1{fill:#1f1f35;}</style></defs><title>Dang 5</title><path class="cls-1" d="M298.3,282.92l.36.87-6,5.91-.36.15c-17.7,0-18.3-20.52-18.83-38.62-.41-14-.76-26.09-8.64-26.09-3.06,0-5.79,2.18-7.3,5.84a17.2,17.2,0,0,0,3.79,18.27V250l-6.43,6.43c-.1,1.48-.21,3-.32,4.39-.71,9.5-1.32,17.71,1.57,20.83a4.3,4.3,0,0,0,3.34,1.33l.36.86-5.79,5.87-.36.15a11,11,0,0,1-8.17-3.1c-5.39-5.46-5.26-17-5.11-29.2.14-11.76.28-23.93-5.09-29.37a10.79,10.79,0,0,0-8.11-3l-.36-.86,5.8-5.83.36-.15c7.25,0,12.77,2.13,16.42,6.34,3.6-4.15,8.71-6.34,14.82-6.34,23.64,0,24.11,22.1,24.47,39.85C289,271.44,289.24,282.92,298.3,282.92Zm-77.77-21.18c-.21-18.33-.51-43.44-27.64-43.44-10.16,0-18.45,3.81-24,11-4.73,6.17-7.33,14.77-7.33,24.21,0,9.09,2.43,18.19,6.66,25,4.64,7.43,11.1,11.53,18.17,11.53l.35-.14,6.21-6-.35-.87c-8.86,0-14.15-15.73-14.15-30.95,0-7.32,1.21-14,3.41-18.78,1.71-3.73,4.91-8.17,10.41-8.17,10.23,0,10.5,13.6,10.78,28,.33,17.1.71,36.49,18.32,36.49l.36-.15,5.74-5.66-.36-.87C220.78,283,220.67,273.6,220.53,261.74Zm-69.37,18.89c-7.08-7.25-6.54-30.11-6-54.32.62-26.46,1.27-53.82-8.17-63.48a11.8,11.8,0,0,0-8.75-3.65l-.36.15-5.83,5.83.36.87a2.28,2.28,0,0,1,1.68.75c3.71,3.79,3.37,20.3,3,39.41-.09,4.59-.19,9.33-.24,14.13a20.42,20.42,0,0,0-9.15-2c-8.64,0-15.89,4.27-21,12.34-4.35,6.92-6.84,16.49-6.84,26.25,0,15.79,6.77,32.78,21.63,32.78l.36-.15,5.66-5.74-.36-.86c-4.19,0-6.64-4.44-8-8.17-1.7-4.82-2.64-11.53-2.64-18.89,0-19.22,5.35-30.71,10.53-30.71,2.4,0,4.18,1.36,5.28,4,2.65,6.4.54,17.71-2.14,20.4v.72l8.4,8.33c3.05,20.92,10.27,31.1,22.07,31.1l.36-.15,5.83-5.79-.36-.87A7.21,7.21,0,0,1,151.16,280.63ZM396.85,266.9l-9,9v.72l9,9h.72l9-9v-.72l-9-9Zm-2.57-15a10.81,10.81,0,0,0,8.06,3.41l.36-.15,7.39-7.39-.36-.87a4.2,4.2,0,0,1-3.19-1.37c-4.42-4.64-3.67-20.27-2.87-36.82,1-20.17,2.08-43-6.06-51.57a11.38,11.38,0,0,0-8.57-3.56l-.36.15-5.83,5.8.36.87a2.36,2.36,0,0,1,1.77.79c3.44,3.57,2.9,18.36,2.32,34C386.49,217.54,385.56,242.86,394.29,251.91Zm-33.69-33.53c-4.91,0-8.7,2.86-11.27,8.49-2.61-4.09-7.51-8.57-16.4-8.57-8.57,0-15.75,4.21-20.76,12.18-4.29,6.83-6.75,16.31-6.75,26,0,8.77,1.95,16.91,5.48,22.92,4,6.77,9.66,10.35,16.41,10.35l.36-.15,5.76-5.83-.36-.86c-4.29,0-6.82-4.64-8.19-8.53-1.76-5-2.73-11.95-2.73-19.51,0-14.62,3.81-29.74,10.19-29.74,2.43,0,4.24,1.38,5.37,4.11,2.63,6.35.59,17.51-2,20.15v.71l8.94,9c-.14,7.5,0,15.56.11,23.36.38,23.33.77,47.45-6.5,54.83a7.44,7.44,0,0,1-5.54,2.34l-.3.91,7.6,5.7.3.1a16,16,0,0,0,12-5c12-12.5,10.48-46.7,9.29-74.18-.86-19.72-1.59-36.75,2.54-41.07a3,3,0,0,1,2.23-1l.36-.87L361,218.52Z"/></svg>