<svg id="Layer_1" data-name="Layer 1" xmlns="http://www.w3.org/2000/svg" viewBox="0 0 500 500"><defs><style>.cls-1{fill:#231f20;}</style></defs><title>Dang 13</title><path class="cls-1" d="M90.22,140.65A30.35,30.35,0,0,0,45,167.14V320.89a30.35,30.35,0,0,0,45.22,26.49v.14h15.55V76.45H90.22ZM75.39,335.72a14.85,14.85,0,0,1-14.83-14.83V167.14a14.83,14.83,0,1,1,29.67,0V320.89A14.85,14.85,0,0,1,75.39,335.72Zm364.06-13.26H455v25.05H439.45ZM455,76.45V287.59H439.45V76.45Zm-88.35,60.31a30.42,30.42,0,0,0-30.39,30.39V320.89A30.33,30.33,0,0,0,382,347.07v46.09a14.83,14.83,0,1,1-29.67,0v-17H336.77v17a30.37,30.37,0,0,0,60.75.5h0V143.72H386A30.24,30.24,0,0,0,366.65,136.76Zm14.83,184.13a14.83,14.83,0,1,1-29.67,0V167.14a14.83,14.83,0,1,1,29.67,0ZM168.91,136.76a30.42,30.42,0,0,0-30.39,30.39V320.89a30.35,30.35,0,0,0,45.22,26.49v.14H199.3v-204H188A30.23,30.23,0,0,0,168.91,136.76Zm0,199a14.85,14.85,0,0,1-14.83-14.83V167.14a14.83,14.83,0,1,1,29.67,0V320.89A14.85,14.85,0,0,1,168.91,335.72Zm130-168.58v181H283.37v-181a14.83,14.83,0,1,0-29.67,0V347.52H238.15v-204h11.3a30.36,30.36,0,0,1,49.47,23.61Z"/></svg>