<svg id="Layer_1" data-name="Layer 1" xmlns="http://www.w3.org/2000/svg" viewBox="0 0 500 500"><defs><style>.cls-1{fill:#1f1f35;}</style></defs><title>Dang 4</title><path class="cls-1" d="M152.53,262V186c.16-3.4,1.08-13.46,6.29-13.46l.45-2.26H126.13l.45,2.26c6.27,0,6.32,14.57,6.32,14.57v12.58a22,22,0,0,0-9-1.94c-15.72,0-28.47,17-28.47,38.06s12.75,41.45,28.47,41.45a19.27,19.27,0,0,0,8.74-2.17v2.23h26.6l-.45-2.26C153.63,275.09,152.7,265.77,152.53,262Zm-28.94,10.33c-11.63,0-11.12-69.68.68-69.68S135.22,272.37,123.59,272.37Zm103.27,2.8c-7.11,0-6.32-14.57-6.32-14.57l-.11-23.41c0-21.82-12.19-38.06-28.91-38.06-6.79,0-12,2.67-13.51,4.22h0a6.56,6.56,0,1,0,9.57.69h.18c6.49,0,10.41,10.74,11.88,21.77a34.13,34.13,0,0,0-9.54-1.35c-16.72,0-30.28,11.88-30.28,26.53s13.55,26.53,30.28,26.53A34.06,34.06,0,0,0,200.28,276v1.46l27,0Zm-37.14-2.92c-13.12,0-12.55-42.5.77-42.5S202.85,272.25,189.73,272.25Zm79.4,5.09.45-2.26c4.67,0,5.93-6.27,6.25-10.58V233.77c0-15.46-2.54-29.13-12.51-29.13-3.11,0-5.74,2.06-5.74,4.2v55c.23,4.29,1.36,11.3,6.3,11.3l.45,2.26H231.16l.45-2.26c5.53,0,6.28-8.8,6.35-12.72v-1.14c0-.44,0-.7,0-.7h0v-46h0S237.89,200,231.62,200l-.45-2.26,26.41,0v3.84a24.66,24.66,0,0,1,9.49-1.92c16.72,0,28.91,12.82,28.91,38.06V265c.38,4.28,1.71,10.11,6.21,10.11l.45,2.26Zm89.25-79.85v14.65c-5.55-8.37-13.91-13.69-23.25-13.69-16.72,0-30.28,19.75-30.28,40.77,0,13.22,5.36,24.86,13.5,31.68-13.7,4.63-14.55,14.89-2.53,20.27-6.83,5-11.19,12.51-11.19,21,0,14.92,13.55,27,30.28,27s30.28-12.1,30.28-27-13.55-27-30.28-27h-.54c-9.11-.58-10.16-7.42-.18-7.89.32,0,.63,0,.95,0,16.37,0,29.7-16.34,30.25-36.76h0v-.17c0-.38,0-.75,0-1.13,0-.69,0-1.38,0-2.06,0-9.3.54-37.41,6.35-37.41l.45-2.26Zm-23.1,92c13.32,0,12.35,45.34-.77,45.34S322,289.48,335.28,289.48Zm-.5-17.17c-11.63,0-11.12-69,.68-69S346.41,272.32,334.78,272.32ZM387.21,252l-2.3-91.14h19.63L402.23,252Zm0,11.26v13.89h15V263.23Z"/></svg>